<?xml version="1.0" encoding="utf-8" standalone="no"?>
<!DOCTYPE svg PUBLIC "-//W3C//DTD SVG 1.1//EN"
  "http://www.w3.org/Graphics/SVG/1.1/DTD/svg11.dtd">
<svg xmlns:xlink="http://www.w3.org/1999/xlink" width="460.8pt" height="345.6pt" viewBox="0 0 460.8 345.6" xmlns="http://www.w3.org/2000/svg" version="1.1">
 <metadata>
  <rdf:RDF xmlns:dc="http://purl.org/dc/elements/1.1/" xmlns:cc="http://creativecommons.org/ns#" xmlns:rdf="http://www.w3.org/1999/02/22-rdf-syntax-ns#">
   <cc:Work>
    <dc:type rdf:resource="http://purl.org/dc/dcmitype/StillImage"/>
    <dc:date>2025-03-06T21:25:22.367237</dc:date>
    <dc:format>image/svg+xml</dc:format>
    <dc:creator>
     <cc:Agent>
      <dc:title>Matplotlib v3.10.0, https://matplotlib.org/</dc:title>
     </cc:Agent>
    </dc:creator>
   </cc:Work>
  </rdf:RDF>
 </metadata>
 <defs>
  <style type="text/css">*{stroke-linejoin: round; stroke-linecap: butt}</style>
 </defs>
 <g id="figure_1">
  <g id="patch_1">
   <path d="M 0 345.6 
L 460.8 345.6 
L 460.8 0 
L 0 0 
z
" style="fill: #ffffff"/>
  </g>
  <g id="axes_1">
   <g id="patch_2">
    <path d="M 47.55125 300.9175 
L 421.97875 300.9175 
L 421.97875 26.89125 
L 47.55125 26.89125 
z
" style="fill: #ffffff"/>
   </g>
   <g id="matplotlib.axis_1">
    <g id="xtick_1">
     <g id="line2d_1">
      <defs>
       <path id="md71dc66ee6" d="M 0 0 
L 0 3.5 
" style="stroke: #000000; stroke-width: 0.8"/>
      </defs>
      <g>
       <use xlink:href="#md71dc66ee6" x="64.570682" y="300.9175" style="stroke: #000000; stroke-width: 0.8"/>
      </g>
     </g>
     <g id="text_1">
      <!-- 0 -->
      <g transform="translate(61.785526 315.9675) scale(0.1 -0.1)">
       <defs>
        <path id="NotoSerifSC-Regular-30" d="M 1779 -96 
Q 1402 -96 1062 153 
Q 723 403 512 937 
Q 301 1472 301 2342 
Q 301 3200 512 3731 
Q 723 4262 1062 4508 
Q 1402 4755 1779 4755 
Q 2170 4755 2506 4508 
Q 2842 4262 3050 3731 
Q 3258 3200 3258 2342 
Q 3258 1472 3050 937 
Q 2842 403 2506 153 
Q 2170 -96 1779 -96 
z
M 1779 102 
Q 1958 102 2128 214 
Q 2298 326 2432 582 
Q 2566 838 2646 1270 
Q 2726 1702 2726 2342 
Q 2726 2970 2646 3395 
Q 2566 3821 2432 4073 
Q 2298 4326 2128 4438 
Q 1958 4550 1779 4550 
Q 1600 4550 1430 4438 
Q 1261 4326 1126 4073 
Q 992 3821 912 3395 
Q 832 2970 832 2342 
Q 832 1702 912 1270 
Q 992 838 1126 582 
Q 1261 326 1430 214 
Q 1600 102 1779 102 
z
" transform="scale(0.015625)"/>
       </defs>
       <use xlink:href="#NotoSerifSC-Regular-30"/>
      </g>
     </g>
    </g>
    <g id="xtick_2">
     <g id="line2d_2">
      <g>
       <use xlink:href="#md71dc66ee6" x="107.333073" y="300.9175" style="stroke: #000000; stroke-width: 0.8"/>
      </g>
     </g>
     <g id="text_2">
      <!-- 25 -->
      <g transform="translate(101.753386 315.9675) scale(0.1 -0.1)">
       <defs>
        <path id="NotoSerifSC-Regular-32" d="M 410 0 
L 410 346 
Q 730 723 1034 1084 
Q 1338 1446 1574 1722 
Q 1914 2131 2125 2438 
Q 2336 2746 2435 3008 
Q 2534 3270 2534 3552 
Q 2534 4032 2294 4294 
Q 2054 4557 1626 4557 
Q 1446 4557 1270 4509 
Q 1094 4461 896 4333 
L 1158 4531 
L 986 3904 
Q 934 3718 857 3644 
Q 781 3571 672 3571 
Q 582 3571 512 3625 
Q 442 3680 410 3770 
Q 467 4096 665 4313 
Q 864 4531 1158 4643 
Q 1453 4755 1779 4755 
Q 2426 4755 2752 4432 
Q 3078 4109 3078 3539 
Q 3078 3245 2940 2963 
Q 2803 2682 2505 2333 
Q 2208 1984 1715 1485 
Q 1619 1382 1452 1206 
Q 1286 1030 1081 806 
Q 877 582 666 346 
L 723 544 
L 723 448 
L 3270 448 
L 3270 0 
L 410 0 
z
" transform="scale(0.015625)"/>
        <path id="NotoSerifSC-Regular-35" d="M 1574 -96 
Q 1056 -96 713 141 
Q 371 378 282 819 
Q 320 909 390 957 
Q 461 1005 550 1005 
Q 672 1005 739 934 
Q 806 864 845 691 
L 1024 102 
L 806 288 
Q 973 192 1126 147 
Q 1280 102 1498 102 
Q 2054 102 2352 435 
Q 2650 768 2650 1382 
Q 2650 1978 2352 2262 
Q 2054 2547 1562 2547 
Q 1350 2547 1164 2508 
Q 979 2470 813 2394 
L 653 2458 
L 800 4659 
L 3091 4659 
L 3091 4211 
L 902 4211 
L 1024 4506 
L 890 2502 
L 698 2566 
Q 947 2701 1190 2752 
Q 1434 2803 1709 2803 
Q 2400 2803 2806 2448 
Q 3213 2093 3213 1408 
Q 3213 954 3011 618 
Q 2810 282 2442 93 
Q 2074 -96 1574 -96 
z
" transform="scale(0.015625)"/>
       </defs>
       <use xlink:href="#NotoSerifSC-Regular-32"/>
       <use xlink:href="#NotoSerifSC-Regular-35" transform="translate(55.799988 0)"/>
      </g>
     </g>
    </g>
    <g id="xtick_3">
     <g id="line2d_3">
      <g>
       <use xlink:href="#md71dc66ee6" x="150.095465" y="300.9175" style="stroke: #000000; stroke-width: 0.8"/>
      </g>
     </g>
     <g id="text_3">
      <!-- 50 -->
      <g transform="translate(144.520465 315.9675) scale(0.1 -0.1)">
       <use xlink:href="#NotoSerifSC-Regular-35"/>
       <use xlink:href="#NotoSerifSC-Regular-30" transform="translate(55.799988 0)"/>
      </g>
     </g>
    </g>
    <g id="xtick_4">
     <g id="line2d_4">
      <g>
       <use xlink:href="#md71dc66ee6" x="192.857856" y="300.9175" style="stroke: #000000; stroke-width: 0.8"/>
      </g>
     </g>
     <g id="text_4">
      <!-- 75 -->
      <g transform="translate(187.3227 315.9675) scale(0.1 -0.1)">
       <defs>
        <path id="NotoSerifSC-Regular-37" d="M 986 0 
L 934 45 
L 2912 4390 
L 2854 4109 
L 2854 4211 
L 352 4211 
L 352 4659 
L 3123 4659 
L 3123 4371 
L 1453 0 
L 986 0 
z
" transform="scale(0.015625)"/>
       </defs>
       <use xlink:href="#NotoSerifSC-Regular-37"/>
       <use xlink:href="#NotoSerifSC-Regular-35" transform="translate(54.899994 0)"/>
      </g>
     </g>
    </g>
    <g id="xtick_5">
     <g id="line2d_5">
      <g>
       <use xlink:href="#md71dc66ee6" x="235.620248" y="300.9175" style="stroke: #000000; stroke-width: 0.8"/>
      </g>
     </g>
     <g id="text_5">
      <!-- 100 -->
      <g transform="translate(227.695248 315.9675) scale(0.1 -0.1)">
       <defs>
        <path id="NotoSerifSC-Regular-31" d="M 480 0 
L 480 179 
L 1408 275 
L 1869 275 
L 2733 173 
L 2733 -6 
L 480 0 
z
M 1350 0 
Q 1370 736 1370 1472 
L 1370 4333 
L 448 4179 
L 448 4371 
L 1824 4723 
L 1920 4653 
L 1894 3642 
L 1894 1472 
Q 1894 1107 1900 736 
Q 1907 365 1914 0 
L 1350 0 
z
" transform="scale(0.015625)"/>
       </defs>
       <use xlink:href="#NotoSerifSC-Regular-31"/>
       <use xlink:href="#NotoSerifSC-Regular-30" transform="translate(47.099991 0)"/>
       <use xlink:href="#NotoSerifSC-Regular-30" transform="translate(102.799988 0)"/>
      </g>
     </g>
    </g>
    <g id="xtick_6">
     <g id="line2d_6">
      <g>
       <use xlink:href="#md71dc66ee6" x="278.382639" y="300.9175" style="stroke: #000000; stroke-width: 0.8"/>
      </g>
     </g>
     <g id="text_6">
      <!-- 125 -->
      <g transform="translate(270.448264 315.9675) scale(0.1 -0.1)">
       <use xlink:href="#NotoSerifSC-Regular-31"/>
       <use xlink:href="#NotoSerifSC-Regular-32" transform="translate(47.099991 0)"/>
       <use xlink:href="#NotoSerifSC-Regular-35" transform="translate(102.899979 0)"/>
      </g>
     </g>
    </g>
    <g id="xtick_7">
     <g id="line2d_7">
      <g>
       <use xlink:href="#md71dc66ee6" x="321.145031" y="300.9175" style="stroke: #000000; stroke-width: 0.8"/>
      </g>
     </g>
     <g id="text_7">
      <!-- 150 -->
      <g transform="translate(313.215343 315.9675) scale(0.1 -0.1)">
       <use xlink:href="#NotoSerifSC-Regular-31"/>
       <use xlink:href="#NotoSerifSC-Regular-35" transform="translate(47.099991 0)"/>
       <use xlink:href="#NotoSerifSC-Regular-30" transform="translate(102.899979 0)"/>
      </g>
     </g>
    </g>
    <g id="xtick_8">
     <g id="line2d_8">
      <g>
       <use xlink:href="#md71dc66ee6" x="363.907422" y="300.9175" style="stroke: #000000; stroke-width: 0.8"/>
      </g>
     </g>
     <g id="text_8">
      <!-- 175 -->
      <g transform="translate(356.017579 315.9675) scale(0.1 -0.1)">
       <use xlink:href="#NotoSerifSC-Regular-31"/>
       <use xlink:href="#NotoSerifSC-Regular-37" transform="translate(47.099991 0)"/>
       <use xlink:href="#NotoSerifSC-Regular-35" transform="translate(101.999985 0)"/>
      </g>
     </g>
    </g>
    <g id="xtick_9">
     <g id="line2d_9">
      <g>
       <use xlink:href="#md71dc66ee6" x="406.669814" y="300.9175" style="stroke: #000000; stroke-width: 0.8"/>
      </g>
     </g>
     <g id="text_9">
      <!-- 200 -->
      <g transform="translate(398.309658 315.9675) scale(0.1 -0.1)">
       <use xlink:href="#NotoSerifSC-Regular-32"/>
       <use xlink:href="#NotoSerifSC-Regular-30" transform="translate(55.799988 0)"/>
       <use xlink:href="#NotoSerifSC-Regular-30" transform="translate(111.499985 0)"/>
      </g>
     </g>
    </g>
    <g id="text_10">
     <!-- Epochs -->
     <g transform="translate(216.965781 330.6175) scale(0.1 -0.1)">
      <defs>
       <path id="NotoSerifSC-Regular-45" d="M 339 0 
L 339 192 
L 1222 269 
L 1293 269 
L 1293 0 
L 339 0 
z
M 992 0 
Q 1005 538 1005 1075 
Q 1005 1613 1005 2157 
L 1005 2502 
Q 1005 3046 1005 3587 
Q 1005 4128 992 4659 
L 1587 4659 
Q 1581 4128 1577 3581 
Q 1574 3034 1574 2432 
L 1574 2291 
Q 1574 1645 1577 1091 
Q 1581 538 1587 0 
L 992 0 
z
M 1293 0 
L 1293 218 
L 3693 218 
L 3405 58 
L 3622 1171 
L 3891 1171 
L 3853 0 
L 1293 0 
z
M 1293 2259 
L 1293 2470 
L 2835 2470 
L 2835 2259 
L 1293 2259 
z
M 2790 1600 
L 2701 2310 
L 2701 2445 
L 2790 3142 
L 3014 3142 
L 3014 1600 
L 2790 1600 
z
M 339 4467 
L 339 4659 
L 1293 4659 
L 1293 4397 
L 1222 4397 
L 339 4467 
z
M 3507 3507 
L 3296 4614 
L 3578 4435 
L 1293 4435 
L 1293 4659 
L 3738 4659 
L 3782 3507 
L 3507 3507 
z
" transform="scale(0.015625)"/>
       <path id="NotoSerifSC-Regular-70" d="M 262 -1664 
L 262 -1485 
L 973 -1421 
L 1210 -1421 
L 1971 -1485 
L 1971 -1664 
L 262 -1664 
z
M 800 -1664 
Q 806 -1446 809 -1187 
Q 813 -928 816 -662 
Q 819 -397 819 -173 
L 819 1837 
Q 819 2163 816 2428 
Q 813 2694 800 2931 
L 230 2957 
L 230 3123 
L 1216 3379 
L 1299 3328 
L 1338 2784 
L 1350 2752 
L 1350 506 
L 1338 442 
L 1338 -173 
Q 1338 -390 1341 -656 
Q 1344 -922 1347 -1184 
Q 1350 -1446 1357 -1664 
L 800 -1664 
z
M 2349 -96 
Q 2061 -96 1773 32 
Q 1485 160 1242 493 
L 1158 493 
L 1248 672 
Q 1491 410 1712 310 
Q 1933 211 2195 211 
Q 2477 211 2704 355 
Q 2931 499 3068 822 
Q 3206 1146 3206 1670 
Q 3206 2400 2934 2752 
Q 2662 3104 2227 3104 
Q 1984 3104 1747 2989 
Q 1510 2874 1222 2547 
L 1158 2720 
L 1229 2720 
Q 1478 3085 1795 3241 
Q 2112 3398 2432 3398 
Q 2822 3398 3123 3187 
Q 3424 2976 3597 2592 
Q 3770 2208 3770 1683 
Q 3770 1133 3587 733 
Q 3405 333 3081 118 
Q 2758 -96 2349 -96 
z
" transform="scale(0.015625)"/>
       <path id="NotoSerifSC-Regular-6f" d="M 1901 -96 
Q 1478 -96 1116 102 
Q 755 301 531 688 
Q 307 1075 307 1651 
Q 307 2227 537 2614 
Q 768 3002 1133 3200 
Q 1498 3398 1901 3398 
Q 2317 3398 2681 3203 
Q 3046 3008 3273 2617 
Q 3501 2227 3501 1651 
Q 3501 1075 3277 684 
Q 3053 294 2691 99 
Q 2330 -96 1901 -96 
z
M 1901 102 
Q 2381 102 2653 499 
Q 2925 896 2925 1645 
Q 2925 2387 2653 2790 
Q 2381 3194 1901 3194 
Q 1427 3194 1152 2790 
Q 877 2387 877 1645 
Q 877 896 1152 499 
Q 1427 102 1901 102 
z
" transform="scale(0.015625)"/>
       <path id="NotoSerifSC-Regular-63" d="M 1901 -96 
Q 1434 -96 1075 109 
Q 717 314 512 694 
Q 307 1075 307 1606 
Q 307 2182 544 2582 
Q 781 2982 1161 3190 
Q 1542 3398 1984 3398 
Q 2272 3398 2515 3292 
Q 2758 3187 2928 3001 
Q 3098 2816 3168 2554 
Q 3110 2330 2899 2330 
Q 2765 2330 2685 2403 
Q 2605 2477 2579 2643 
L 2419 3213 
L 2739 2957 
Q 2541 3085 2368 3139 
Q 2195 3194 2016 3194 
Q 1690 3194 1427 3008 
Q 1165 2822 1014 2483 
Q 864 2144 864 1677 
Q 864 986 1203 605 
Q 1542 224 2080 224 
Q 2368 224 2617 336 
Q 2867 448 3078 685 
L 3181 602 
Q 2970 269 2662 86 
Q 2355 -96 1901 -96 
z
" transform="scale(0.015625)"/>
       <path id="NotoSerifSC-Regular-68" d="M 269 0 
L 269 179 
L 966 250 
L 1178 250 
L 1837 179 
L 1837 0 
L 269 0 
z
M 800 0 
Q 806 154 809 416 
Q 813 678 816 963 
Q 819 1248 819 1466 
L 819 4762 
L 256 4787 
L 256 4960 
L 1254 5152 
L 1350 5094 
L 1331 4102 
L 1331 2637 
L 1344 2554 
L 1344 1466 
Q 1344 1248 1347 963 
Q 1350 678 1353 416 
Q 1357 154 1363 0 
L 800 0 
z
M 2458 0 
L 2458 179 
L 3149 250 
L 3354 250 
L 4026 179 
L 4026 0 
L 2458 0 
z
M 2976 0 
Q 2982 154 2985 413 
Q 2989 672 2992 957 
Q 2995 1242 2995 1466 
L 2995 2202 
Q 2995 2675 2838 2864 
Q 2682 3053 2400 3053 
Q 2176 3053 1881 2912 
Q 1587 2771 1235 2387 
L 1114 2605 
L 1254 2605 
Q 1594 3021 1933 3209 
Q 2272 3398 2624 3398 
Q 3046 3398 3283 3120 
Q 3520 2842 3520 2182 
L 3520 1466 
Q 3520 1242 3523 957 
Q 3526 672 3532 413 
Q 3539 154 3546 0 
L 2976 0 
z
" transform="scale(0.015625)"/>
       <path id="NotoSerifSC-Regular-73" d="M 1414 -96 
Q 1107 -96 857 -29 
Q 608 38 346 160 
L 346 922 
L 627 922 
L 781 115 
L 544 128 
L 544 358 
Q 723 237 921 173 
Q 1120 109 1402 109 
Q 1824 109 2038 281 
Q 2253 454 2253 723 
Q 2253 960 2109 1110 
Q 1965 1261 1574 1382 
L 1242 1504 
Q 851 1645 624 1865 
Q 397 2086 397 2445 
Q 397 2848 707 3123 
Q 1018 3398 1594 3398 
Q 1882 3398 2109 3328 
Q 2336 3258 2573 3110 
L 2554 2426 
L 2298 2426 
L 2144 3174 
L 2342 3136 
L 2342 2931 
Q 2150 3066 1971 3126 
Q 1792 3187 1594 3187 
Q 1229 3187 1043 3027 
Q 858 2867 858 2611 
Q 858 2381 1011 2237 
Q 1165 2093 1510 1971 
L 1837 1856 
Q 2323 1690 2528 1459 
Q 2733 1229 2733 896 
Q 2733 621 2582 393 
Q 2432 166 2144 35 
Q 1856 -96 1414 -96 
z
" transform="scale(0.015625)"/>
      </defs>
      <use xlink:href="#NotoSerifSC-Regular-45"/>
      <use xlink:href="#NotoSerifSC-Regular-70" transform="translate(65.199997 0)"/>
      <use xlink:href="#NotoSerifSC-Regular-6f" transform="translate(128.999985 0)"/>
      <use xlink:href="#NotoSerifSC-Regular-63" transform="translate(188.599976 0)"/>
      <use xlink:href="#NotoSerifSC-Regular-68" transform="translate(242.399963 0)"/>
      <use xlink:href="#NotoSerifSC-Regular-73" transform="translate(308.699951 0)"/>
     </g>
    </g>
   </g>
   <g id="matplotlib.axis_2">
    <g id="ytick_1">
     <g id="line2d_10">
      <defs>
       <path id="mecc73b763b" d="M 0 0 
L -3.5 0 
" style="stroke: #000000; stroke-width: 0.8"/>
      </defs>
      <g>
       <use xlink:href="#mecc73b763b" x="47.55125" y="259.779394" style="stroke: #000000; stroke-width: 0.8"/>
      </g>
     </g>
     <g id="text_11">
      <!-- 0.2 -->
      <g style="fill: #d62728" transform="translate(26.130938 263.804394) scale(0.1 -0.1)">
       <defs>
        <path id="NotoSerifSC-Regular-2e" d="M 1043 -96 
Q 877 -96 765 22 
Q 653 141 653 294 
Q 653 467 765 579 
Q 877 691 1043 691 
Q 1210 691 1325 579 
Q 1440 467 1440 294 
Q 1440 141 1325 22 
Q 1210 -96 1043 -96 
z
" transform="scale(0.015625)"/>
       </defs>
       <use xlink:href="#NotoSerifSC-Regular-30"/>
       <use xlink:href="#NotoSerifSC-Regular-2e" transform="translate(55.699997 0)"/>
       <use xlink:href="#NotoSerifSC-Regular-32" transform="translate(88.399994 0)"/>
      </g>
     </g>
    </g>
    <g id="ytick_2">
     <g id="line2d_11">
      <g>
       <use xlink:href="#mecc73b763b" x="47.55125" y="204.031351" style="stroke: #000000; stroke-width: 0.8"/>
      </g>
     </g>
     <g id="text_12">
      <!-- 0.4 -->
      <g style="fill: #d62728" transform="translate(26.160625 208.056351) scale(0.1 -0.1)">
       <defs>
        <path id="NotoSerifSC-Regular-34" d="M 2170 -115 
L 2170 1357 
L 2170 1440 
L 2170 4346 
L 2093 4346 
L 2323 4454 
L 1389 2989 
L 416 1478 
L 467 1690 
L 467 1600 
L 3418 1600 
L 3418 1229 
L 218 1229 
L 218 1530 
L 2291 4730 
L 2650 4730 
L 2650 -115 
L 2170 -115 
z
" transform="scale(0.015625)"/>
       </defs>
       <use xlink:href="#NotoSerifSC-Regular-30"/>
       <use xlink:href="#NotoSerifSC-Regular-2e" transform="translate(55.699997 0)"/>
       <use xlink:href="#NotoSerifSC-Regular-34" transform="translate(88.399994 0)"/>
      </g>
     </g>
    </g>
    <g id="ytick_3">
     <g id="line2d_12">
      <g>
       <use xlink:href="#mecc73b763b" x="47.55125" y="148.283307" style="stroke: #000000; stroke-width: 0.8"/>
      </g>
     </g>
     <g id="text_13">
      <!-- 0.6 -->
      <g style="fill: #d62728" transform="translate(26.130938 152.308307) scale(0.1 -0.1)">
       <defs>
        <path id="NotoSerifSC-Regular-36" d="M 1850 -96 
Q 1389 -96 1053 137 
Q 717 371 537 787 
Q 358 1203 358 1773 
Q 358 2330 550 2835 
Q 742 3341 1097 3747 
Q 1453 4154 1961 4416 
Q 2470 4678 3104 4755 
L 3136 4614 
Q 2400 4461 1904 4061 
Q 1408 3661 1158 3085 
Q 909 2509 909 1830 
Q 909 1011 1158 556 
Q 1408 102 1856 102 
Q 2106 102 2301 249 
Q 2496 397 2611 685 
Q 2726 973 2726 1376 
Q 2726 1952 2492 2253 
Q 2259 2554 1856 2554 
Q 1587 2554 1337 2435 
Q 1088 2317 845 2035 
L 723 2106 
L 768 2106 
Q 1267 2816 2029 2816 
Q 2419 2816 2694 2643 
Q 2970 2470 3114 2153 
Q 3258 1837 3258 1414 
Q 3258 979 3075 636 
Q 2893 294 2576 99 
Q 2259 -96 1850 -96 
z
" transform="scale(0.015625)"/>
       </defs>
       <use xlink:href="#NotoSerifSC-Regular-30"/>
       <use xlink:href="#NotoSerifSC-Regular-2e" transform="translate(55.699997 0)"/>
       <use xlink:href="#NotoSerifSC-Regular-36" transform="translate(88.399994 0)"/>
      </g>
     </g>
    </g>
    <g id="ytick_4">
     <g id="line2d_13">
      <g>
       <use xlink:href="#mecc73b763b" x="47.55125" y="92.535264" style="stroke: #000000; stroke-width: 0.8"/>
      </g>
     </g>
     <g id="text_14">
      <!-- 0.8 -->
      <g style="fill: #d62728" transform="translate(26.130938 96.560264) scale(0.1 -0.1)">
       <defs>
        <path id="NotoSerifSC-Regular-38" d="M 1754 -96 
Q 1082 -96 723 214 
Q 365 525 365 1024 
Q 365 1466 662 1779 
Q 960 2093 1536 2330 
L 1536 2362 
L 1683 2272 
Q 1235 2016 1033 1741 
Q 832 1466 832 1082 
Q 832 621 1085 361 
Q 1338 102 1779 102 
Q 2227 102 2473 345 
Q 2720 589 2720 986 
Q 2720 1222 2614 1433 
Q 2509 1645 2256 1840 
Q 2003 2035 1562 2227 
Q 998 2464 748 2816 
Q 499 3168 499 3603 
Q 499 3955 675 4214 
Q 851 4474 1145 4614 
Q 1440 4755 1798 4755 
Q 2189 4755 2464 4614 
Q 2739 4474 2883 4234 
Q 3027 3994 3027 3686 
Q 3027 3341 2790 3017 
Q 2554 2694 1952 2445 
L 1952 2413 
L 1830 2496 
Q 2234 2746 2406 3027 
Q 2579 3309 2579 3699 
Q 2579 4045 2377 4297 
Q 2176 4550 1792 4550 
Q 1574 4550 1385 4451 
Q 1197 4352 1085 4169 
Q 973 3987 973 3731 
Q 973 3514 1059 3309 
Q 1146 3104 1366 2915 
Q 1587 2726 1984 2554 
Q 2643 2259 2931 1923 
Q 3219 1587 3219 1126 
Q 3219 755 3036 480 
Q 2854 205 2524 54 
Q 2195 -96 1754 -96 
z
" transform="scale(0.015625)"/>
       </defs>
       <use xlink:href="#NotoSerifSC-Regular-30"/>
       <use xlink:href="#NotoSerifSC-Regular-2e" transform="translate(55.699997 0)"/>
       <use xlink:href="#NotoSerifSC-Regular-38" transform="translate(88.399994 0)"/>
      </g>
     </g>
    </g>
    <g id="ytick_5">
     <g id="line2d_14">
      <g>
       <use xlink:href="#mecc73b763b" x="47.55125" y="36.78722" style="stroke: #000000; stroke-width: 0.8"/>
      </g>
     </g>
     <g id="text_15">
      <!-- 1.0 -->
      <g style="fill: #d62728" transform="translate(27.00125 40.81222) scale(0.1 -0.1)">
       <use xlink:href="#NotoSerifSC-Regular-31"/>
       <use xlink:href="#NotoSerifSC-Regular-2e" transform="translate(47.099991 0)"/>
       <use xlink:href="#NotoSerifSC-Regular-30" transform="translate(79.799988 0)"/>
      </g>
     </g>
    </g>
    <g id="text_16">
     <!-- Accuracy -->
     <g style="fill: #d62728" transform="translate(19.421563 186.684062) rotate(-90) scale(0.1 -0.1)">
      <defs>
       <path id="NotoSerifSC-Regular-41" d="M 77 0 
L 77 192 
L 704 262 
L 813 262 
L 1510 192 
L 1510 0 
L 77 0 
z
M 538 0 
L 2099 4698 
L 2458 4698 
L 4045 0 
L 3469 0 
L 2061 4320 
L 2189 4320 
L 2163 4230 
L 806 0 
L 538 0 
z
M 1229 1594 
L 1254 1798 
L 3200 1798 
L 3226 1594 
L 1229 1594 
z
M 2675 0 
L 2675 192 
L 3533 262 
L 3718 262 
L 4550 192 
L 4550 0 
L 2675 0 
z
" transform="scale(0.015625)"/>
       <path id="NotoSerifSC-Regular-75" d="M 1670 -96 
Q 1216 -96 966 189 
Q 717 474 723 1190 
L 742 3098 
L 883 2989 
L 211 3078 
L 211 3245 
L 1216 3347 
L 1280 3270 
L 1254 2432 
L 1254 1184 
Q 1254 672 1417 467 
Q 1581 262 1894 262 
Q 2195 262 2470 435 
Q 2746 608 2976 909 
L 3123 659 
L 2957 659 
Q 2707 326 2387 115 
Q 2067 -96 1670 -96 
z
M 2918 -58 
L 2899 730 
L 2899 742 
L 2906 3014 
L 2387 3072 
L 2387 3238 
L 3379 3347 
L 3443 3270 
L 3418 2432 
L 3418 224 
L 3904 173 
L 3904 0 
L 2918 -58 
z
" transform="scale(0.015625)"/>
       <path id="NotoSerifSC-Regular-72" d="M 262 0 
L 262 179 
L 973 256 
L 1235 256 
L 1958 179 
L 1958 0 
L 262 0 
z
M 794 0 
Q 800 154 803 416 
Q 806 678 809 963 
Q 813 1248 813 1466 
L 813 1850 
Q 813 2182 809 2438 
Q 806 2694 794 2931 
L 230 2957 
L 230 3123 
L 1216 3379 
L 1299 3328 
L 1338 2426 
L 1338 2419 
L 1338 1466 
Q 1338 1248 1341 963 
Q 1344 678 1347 416 
Q 1350 154 1357 0 
L 794 0 
z
M 1331 2042 
L 1197 2374 
L 1312 2374 
Q 1408 2688 1581 2915 
Q 1754 3142 1968 3270 
Q 2182 3398 2406 3398 
Q 2592 3398 2733 3324 
Q 2874 3251 2918 3110 
Q 2912 2938 2835 2842 
Q 2758 2746 2586 2746 
Q 2464 2746 2368 2806 
Q 2272 2867 2163 2989 
L 2016 3130 
L 2304 3117 
Q 1971 3027 1737 2768 
Q 1504 2509 1331 2042 
z
" transform="scale(0.015625)"/>
       <path id="NotoSerifSC-Regular-61" d="M 1216 -96 
Q 832 -96 582 121 
Q 333 339 333 736 
Q 333 986 441 1181 
Q 550 1376 803 1529 
Q 1056 1683 1478 1805 
Q 1747 1888 2041 1965 
Q 2336 2042 2592 2099 
L 2592 1939 
Q 2336 1875 2073 1801 
Q 1811 1728 1594 1645 
Q 1184 1498 1014 1293 
Q 845 1088 845 819 
Q 845 525 1008 371 
Q 1171 218 1440 218 
Q 1587 218 1728 275 
Q 1869 333 2048 473 
Q 2227 614 2470 858 
L 2528 557 
L 2374 557 
Q 2176 346 2000 198 
Q 1824 51 1638 -22 
Q 1453 -96 1216 -96 
z
M 2925 -90 
Q 2637 -90 2493 105 
Q 2349 301 2330 640 
L 2330 659 
L 2330 2298 
Q 2330 2656 2253 2851 
Q 2176 3046 2016 3123 
Q 1856 3200 1600 3200 
Q 1414 3200 1228 3145 
Q 1043 3091 832 2976 
L 1107 3149 
L 1005 2643 
Q 979 2470 899 2400 
Q 819 2330 698 2330 
Q 467 2330 416 2560 
Q 512 2950 857 3174 
Q 1203 3398 1741 3398 
Q 2298 3398 2570 3132 
Q 2842 2867 2842 2272 
L 2842 691 
Q 2842 390 2912 284 
Q 2982 179 3110 179 
Q 3194 179 3258 214 
Q 3322 250 3398 333 
L 3501 237 
Q 3398 70 3254 -10 
Q 3110 -90 2925 -90 
z
" transform="scale(0.015625)"/>
       <path id="NotoSerifSC-Regular-79" d="M 512 -1734 
Q 301 -1734 128 -1641 
Q -45 -1549 -64 -1389 
Q -38 -1254 67 -1190 
Q 173 -1126 307 -1126 
Q 435 -1126 547 -1190 
Q 659 -1254 768 -1363 
L 954 -1542 
L 749 -1645 
L 621 -1536 
Q 941 -1446 1187 -1145 
Q 1434 -845 1613 -371 
L 1798 96 
L 1824 179 
L 2394 1754 
L 2931 3302 
L 3181 3302 
L 1837 -301 
Q 1645 -806 1437 -1123 
Q 1229 -1440 1001 -1587 
Q 774 -1734 512 -1734 
z
M 1741 -326 
L 282 3302 
L 864 3302 
L 1946 378 
L 1984 294 
L 1741 -326 
z
M -51 3123 
L -51 3302 
L 1536 3302 
L 1536 3123 
L 851 3059 
L 582 3059 
L -51 3123 
z
M 2240 3123 
L 2240 3302 
L 3533 3302 
L 3533 3123 
L 3008 3066 
L 2912 3066 
L 2240 3123 
z
" transform="scale(0.015625)"/>
      </defs>
      <use xlink:href="#NotoSerifSC-Regular-41"/>
      <use xlink:href="#NotoSerifSC-Regular-63" transform="translate(71.799988 0)"/>
      <use xlink:href="#NotoSerifSC-Regular-63" transform="translate(125.599976 0)"/>
      <use xlink:href="#NotoSerifSC-Regular-75" transform="translate(179.399963 0)"/>
      <use xlink:href="#NotoSerifSC-Regular-72" transform="translate(244.699951 0)"/>
      <use xlink:href="#NotoSerifSC-Regular-61" transform="translate(290.899948 0)"/>
      <use xlink:href="#NotoSerifSC-Regular-63" transform="translate(346.599945 0)"/>
      <use xlink:href="#NotoSerifSC-Regular-79" transform="translate(400.399933 0)"/>
     </g>
    </g>
   </g>
   <g id="line2d_15">
    <path d="M 64.570682 287.848533 
L 66.281177 259.974511 
L 67.991673 262.789789 
L 69.702169 276.750026 
L 71.412664 286.515226 
L 73.12316 288.387431 
L 76.544151 288.461761 
L 78.254647 286.069242 
L 79.965143 254.088449 
L 81.675638 235.199153 
L 83.386134 224.676708 
L 86.807125 195.683082 
L 88.517621 187.822607 
L 90.228117 174.071415 
L 91.938612 136.041966 
L 93.649108 122.690304 
L 95.359604 116.135266 
L 97.070099 98.709351 
L 98.780595 97.255258 
L 100.491091 88.159044 
L 102.201586 84.86526 
L 103.912082 78.379902 
L 105.622578 75.755106 
L 107.333073 72.349824 
L 110.754065 68.628639 
L 112.46456 66.347625 
L 114.175056 65.14439 
L 115.885552 64.224544 
L 117.596047 63.077067 
L 119.306543 61.688003 
L 121.017039 60.856428 
L 124.43803 58.440689 
L 126.148526 58.129421 
L 127.859021 57.488329 
L 129.569517 56.559196 
L 131.280013 56.424471 
L 132.990508 55.945965 
L 134.701004 54.779897 
L 138.121995 53.925095 
L 139.832491 53.167853 
L 143.253482 52.438489 
L 146.674474 51.741622 
L 148.384969 51.109817 
L 150.095465 50.710295 
L 151.80596 50.65919 
L 153.516456 50.157457 
L 156.937447 49.493122 
L 158.647943 49.14934 
L 160.358439 49.005328 
L 162.068934 48.480369 
L 167.200421 47.816033 
L 168.910917 47.704535 
L 172.331908 47.305013 
L 180.884387 46.431621 
L 182.594882 46.422333 
L 189.436865 45.836982 
L 194.568352 45.511792 
L 201.410335 45.093678 
L 203.12083 45.0658 
L 215.0943 44.192424 
L 218.515291 44.025169 
L 220.225787 44.085561 
L 221.936283 43.904383 
L 225.357274 43.718553 
L 232.199257 43.384076 
L 239.041239 43.188959 
L 242.46223 42.993825 
L 247.593717 42.766193 
L 249.304213 42.808011 
L 251.014709 42.659347 
L 252.725204 42.663983 
L 254.4357 42.543197 
L 256.146196 42.552501 
L 257.856691 42.34808 
L 264.698674 42.301627 
L 266.40917 42.171554 
L 273.251152 42.134388 
L 285.224622 41.716275 
L 293.7771 41.544384 
L 295.487596 41.363206 
L 297.198092 41.358554 
L 298.908587 41.233117 
L 300.619083 41.307449 
L 304.040074 41.298162 
L 307.461066 41.437538 
L 314.303048 40.959032 
L 317.72404 41.149498 
L 319.434535 41.08447 
L 321.145031 40.856822 
L 322.855526 40.842882 
L 324.566022 40.940441 
L 327.987013 40.870761 
L 329.697509 40.615251 
L 336.539492 40.4573 
L 339.960483 40.415482 
L 341.670979 40.540919 
L 345.09197 40.503753 
L 346.802466 40.51304 
L 348.512961 40.657052 
L 350.223457 40.921866 
L 351.933953 41.302814 
L 353.644448 41.149498 
L 355.354944 40.540919 
L 357.06544 40.791777 
L 358.775935 40.754628 
L 360.486431 40.429421 
L 362.196927 40.317923 
L 363.907422 40.517692 
L 367.328414 40.132093 
L 369.038909 40.248243 
L 370.749405 40.094927 
L 379.301883 39.881235 
L 384.43337 39.704693 
L 386.143866 39.765085 
L 391.275353 39.477061 
L 392.985849 39.565333 
L 396.40684 39.435243 
L 398.117336 39.509575 
L 399.827831 39.374851 
L 401.538327 39.449183 
L 403.248823 39.346989 
L 404.959318 39.467774 
L 404.959318 39.467774 
" clip-path="url(#pd57c6c3110)" style="fill: none; stroke: #d62728; stroke-width: 1.5; stroke-linecap: square"/>
   </g>
   <g id="line2d_16">
    <path d="M 64.570682 286.761448 
L 66.281177 260.448373 
L 67.991673 262.566797 
L 69.702169 277.563021 
L 71.412664 286.120345 
L 73.12316 288.183023 
L 74.833656 288.183023 
L 76.544151 288.406014 
L 78.254647 285.534991 
L 79.965143 253.061757 
L 81.675638 232.853094 
L 83.386134 223.766158 
L 85.09663 207.292611 
L 86.807125 194.052455 
L 88.517621 186.888831 
L 90.228117 172.561582 
L 91.938612 131.698264 
L 93.649108 119.796058 
L 95.359604 113.608029 
L 97.070099 96.827874 
L 98.780595 94.820944 
L 100.491091 85.538883 
L 102.201586 82.026772 
L 103.912082 76.368337 
L 105.622578 73.079205 
L 107.333073 70.180307 
L 110.754065 67.253531 
L 112.46456 64.49401 
L 114.175056 63.128172 
L 115.885552 62.570699 
L 117.596047 61.176999 
L 119.306543 59.560304 
L 121.017039 59.978417 
L 122.727534 59.114312 
L 124.43803 57.748491 
L 126.148526 57.83211 
L 129.569517 55.936678 
L 131.280013 55.68582 
L 132.990508 55.602184 
L 134.701004 54.849593 
L 138.121995 53.818249 
L 139.832491 52.536048 
L 143.253482 51.699821 
L 144.963978 51.421085 
L 146.674474 50.640615 
L 150.095465 50.445498 
L 151.80596 50.222502 
L 155.226952 49.079677 
L 158.647943 48.522187 
L 160.358439 48.717304 
L 162.068934 48.354948 
L 165.489926 48.18771 
L 167.200421 48.354948 
L 168.910917 48.271329 
L 170.621413 47.853216 
L 172.331908 47.574479 
L 175.7529 47.435103 
L 177.463395 47.267864 
L 179.173891 46.93337 
L 180.884387 46.821872 
L 184.305378 46.738253 
L 187.726369 46.264399 
L 191.147361 45.985662 
L 194.568352 45.567549 
L 196.278848 45.400294 
L 197.989343 45.53967 
L 203.12083 45.149436 
L 206.541822 45.177314 
L 209.962813 44.898561 
L 211.673309 44.92644 
L 213.383804 44.814942 
L 215.0943 44.898561 
L 218.515291 44.647703 
L 220.225787 44.78708 
L 223.646778 44.564084 
L 225.357274 44.647703 
L 228.778265 44.424707 
L 230.488761 44.424707 
L 232.199257 44.313209 
L 233.909752 44.341088 
L 235.620248 44.257468 
L 237.330743 44.313209 
L 239.041239 44.090213 
L 240.751735 44.090213 
L 244.172726 43.895096 
L 245.883222 44.034472 
L 247.593717 43.839355 
L 249.304213 44.006594 
L 251.014709 43.672117 
L 252.725204 43.978732 
L 254.4357 43.783614 
L 256.146196 43.950853 
L 259.567187 43.727857 
L 261.277683 43.783614 
L 262.988178 43.727857 
L 264.698674 43.811477 
L 266.40917 43.588481 
L 268.119665 43.783614 
L 269.830161 43.476999 
L 271.540657 43.895096 
L 273.251152 43.226125 
L 274.961648 43.783614 
L 276.672144 43.421242 
L 278.382639 43.644238 
L 280.093135 43.616359 
L 281.803631 43.476999 
L 283.514126 43.53274 
L 285.224622 43.281882 
L 286.935118 43.644238 
L 288.645613 43.281882 
L 290.356109 43.895096 
L 292.066605 43.393363 
L 295.487596 43.53274 
L 297.198092 43.337623 
L 298.908587 43.504861 
L 300.619083 43.309744 
L 302.329579 43.53274 
L 304.040074 42.947388 
L 305.75057 43.950853 
L 307.461066 43.170384 
L 309.171561 43.895096 
L 310.882057 43.003129 
L 312.592553 43.365501 
L 314.303048 43.337623 
L 316.013544 43.031007 
L 317.72404 43.476999 
L 319.434535 43.142505 
L 321.145031 43.309744 
L 322.855526 43.281882 
L 324.566022 42.947388 
L 326.276518 43.476999 
L 327.987013 42.724392 
L 329.697509 43.365501 
L 331.408005 43.114627 
L 333.1185 43.198246 
L 334.828996 43.393363 
L 336.539492 42.891631 
L 338.249987 43.170384 
L 339.960483 43.254003 
L 341.670979 43.170384 
L 343.381474 43.254003 
L 345.09197 43.031007 
L 346.802466 43.114627 
L 348.512961 43.449121 
L 350.223457 43.309744 
L 351.933953 43.811477 
L 353.644448 43.309744 
L 355.354944 43.114627 
L 357.06544 42.696513 
L 358.775935 43.309744 
L 360.486431 42.947388 
L 363.907422 43.086748 
L 365.617918 42.585032 
L 370.749405 42.83589 
L 372.459901 43.031007 
L 374.170396 42.891631 
L 375.880892 42.612894 
L 377.591388 42.668651 
L 379.301883 42.612894 
L 381.012379 42.808011 
L 382.722875 42.808011 
L 384.43337 42.529275 
L 386.143866 42.640773 
L 387.854362 42.473534 
L 391.275353 42.780149 
L 396.40684 42.445655 
L 398.117336 42.501396 
L 399.827831 42.808011 
L 401.538327 42.557153 
L 404.959318 42.529275 
L 404.959318 42.529275 
" clip-path="url(#pd57c6c3110)" style="fill: none; stroke-dasharray: 5.55,2.4; stroke-dashoffset: 0; stroke: #d62728; stroke-width: 1.5"/>
   </g>
   <g id="patch_3">
    <path d="M 47.55125 300.9175 
L 47.55125 26.89125 
" style="fill: none; stroke: #000000; stroke-width: 0.8; stroke-linejoin: miter; stroke-linecap: square"/>
   </g>
   <g id="patch_4">
    <path d="M 421.97875 300.9175 
L 421.97875 26.89125 
" style="fill: none; stroke: #000000; stroke-width: 0.8; stroke-linejoin: miter; stroke-linecap: square"/>
   </g>
   <g id="patch_5">
    <path d="M 47.55125 300.9175 
L 421.97875 300.9175 
" style="fill: none; stroke: #000000; stroke-width: 0.8; stroke-linejoin: miter; stroke-linecap: square"/>
   </g>
   <g id="patch_6">
    <path d="M 47.55125 26.89125 
L 421.97875 26.89125 
" style="fill: none; stroke: #000000; stroke-width: 0.8; stroke-linejoin: miter; stroke-linecap: square"/>
   </g>
   <g id="legend_1">
    <g id="patch_7">
     <path d="M 308.149063 295.9175 
L 414.97875 295.9175 
Q 416.97875 295.9175 416.97875 293.9175 
L 416.97875 232.09875 
Q 416.97875 230.09875 414.97875 230.09875 
L 308.149063 230.09875 
Q 306.149063 230.09875 306.149063 232.09875 
L 306.149063 293.9175 
Q 306.149063 295.9175 308.149063 295.9175 
z
" style="fill: #ffffff; opacity: 0.8; stroke: #cccccc; stroke-linejoin: miter"/>
    </g>
    <g id="line2d_17">
     <path d="M 310.149063 238.64875 
L 320.149063 238.64875 
L 330.149063 238.64875 
" style="fill: none; stroke: #d62728; stroke-width: 1.5; stroke-linecap: square"/>
    </g>
    <g id="text_17">
     <!-- Train Accuracy -->
     <g transform="translate(338.149063 242.14875) scale(0.1 -0.1)">
      <defs>
       <path id="NotoSerifSC-Regular-54" d="M 1088 0 
L 1088 192 
L 2029 269 
L 2189 269 
L 3136 192 
L 3136 0 
L 1088 0 
z
M 1811 0 
Q 1824 538 1827 1075 
Q 1830 1613 1830 2157 
L 1830 2502 
Q 1830 3046 1827 3587 
Q 1824 4128 1811 4659 
L 2406 4659 
Q 2400 4128 2397 3587 
Q 2394 3046 2394 2502 
L 2394 2157 
Q 2394 1613 2397 1075 
Q 2400 538 2406 0 
L 1811 0 
z
M 141 3443 
L 192 4659 
L 4026 4659 
L 4083 3443 
L 3808 3443 
L 3578 4659 
L 3840 4435 
L 378 4435 
L 646 4659 
L 416 3443 
L 141 3443 
z
" transform="scale(0.015625)"/>
       <path id="NotoSerifSC-Regular-69" d="M 275 0 
L 275 179 
L 979 250 
L 1178 250 
L 1856 179 
L 1856 0 
L 275 0 
z
M 806 0 
Q 813 154 819 416 
Q 826 678 829 963 
Q 832 1248 832 1466 
L 832 1850 
Q 832 2176 825 2438 
Q 819 2701 806 2938 
L 237 2963 
L 237 3130 
L 1293 3379 
L 1370 3328 
L 1350 2432 
L 1350 1466 
Q 1350 1248 1353 963 
Q 1357 678 1363 416 
Q 1370 154 1376 0 
L 806 0 
z
M 1043 4192 
Q 890 4192 781 4291 
Q 672 4390 672 4550 
Q 672 4710 781 4812 
Q 890 4915 1043 4915 
Q 1190 4915 1302 4812 
Q 1414 4710 1414 4550 
Q 1414 4390 1302 4291 
Q 1190 4192 1043 4192 
z
" transform="scale(0.015625)"/>
       <path id="NotoSerifSC-Regular-6e" d="M 269 0 
L 269 179 
L 960 250 
L 1171 250 
L 1837 179 
L 1837 0 
L 269 0 
z
M 794 0 
Q 800 154 803 416 
Q 806 678 809 963 
Q 813 1248 813 1466 
L 813 1850 
Q 813 2182 809 2438 
Q 806 2694 794 2931 
L 230 2957 
L 230 3123 
L 1216 3379 
L 1299 3328 
L 1338 2579 
L 1338 2573 
L 1338 1466 
Q 1338 1248 1341 963 
Q 1344 678 1347 416 
Q 1350 154 1357 0 
L 794 0 
z
M 2445 0 
L 2445 179 
L 3130 250 
L 3341 250 
L 4013 179 
L 4013 0 
L 2445 0 
z
M 2970 0 
Q 2976 154 2979 413 
Q 2982 672 2985 957 
Q 2989 1242 2989 1466 
L 2989 2202 
Q 2989 2675 2832 2864 
Q 2675 3053 2400 3053 
Q 2182 3053 1881 2912 
Q 1581 2771 1229 2381 
L 1178 2598 
L 1242 2598 
Q 1587 3027 1932 3212 
Q 2278 3398 2618 3398 
Q 3034 3398 3270 3120 
Q 3507 2842 3507 2189 
L 3507 1466 
Q 3507 1242 3510 957 
Q 3514 672 3517 413 
Q 3520 154 3526 0 
L 2970 0 
z
" transform="scale(0.015625)"/>
       <path id="NotoSerifSC-Regular-20" transform="scale(0.015625)"/>
      </defs>
      <use xlink:href="#NotoSerifSC-Regular-54"/>
      <use xlink:href="#NotoSerifSC-Regular-72" transform="translate(65.899994 0)"/>
      <use xlink:href="#NotoSerifSC-Regular-61" transform="translate(112.099991 0)"/>
      <use xlink:href="#NotoSerifSC-Regular-69" transform="translate(167.799988 0)"/>
      <use xlink:href="#NotoSerifSC-Regular-6e" transform="translate(200.999985 0)"/>
      <use xlink:href="#NotoSerifSC-Regular-20" transform="translate(267.099976 0)"/>
      <use xlink:href="#NotoSerifSC-Regular-41" transform="translate(292.699966 0)"/>
      <use xlink:href="#NotoSerifSC-Regular-63" transform="translate(364.499954 0)"/>
      <use xlink:href="#NotoSerifSC-Regular-63" transform="translate(418.299942 0)"/>
      <use xlink:href="#NotoSerifSC-Regular-75" transform="translate(472.09993 0)"/>
      <use xlink:href="#NotoSerifSC-Regular-72" transform="translate(537.399918 0)"/>
      <use xlink:href="#NotoSerifSC-Regular-61" transform="translate(583.599915 0)"/>
      <use xlink:href="#NotoSerifSC-Regular-63" transform="translate(639.299911 0)"/>
      <use xlink:href="#NotoSerifSC-Regular-79" transform="translate(693.099899 0)"/>
     </g>
    </g>
    <g id="line2d_18">
     <path d="M 310.149063 254.408125 
L 320.149063 254.408125 
L 330.149063 254.408125 
" style="fill: none; stroke-dasharray: 5.55,2.4; stroke-dashoffset: 0; stroke: #d62728; stroke-width: 1.5"/>
    </g>
    <g id="text_18">
     <!-- Test Accuracy -->
     <g transform="translate(338.149063 257.908125) scale(0.1 -0.1)">
      <defs>
       <path id="NotoSerifSC-Regular-65" d="M 1939 -96 
Q 1472 -96 1101 96 
Q 730 288 518 678 
Q 307 1069 307 1645 
Q 307 2182 528 2576 
Q 749 2970 1107 3184 
Q 1466 3398 1888 3398 
Q 2304 3398 2601 3222 
Q 2899 3046 3056 2745 
Q 3213 2445 3213 2067 
Q 3213 1837 3168 1683 
L 557 1683 
L 557 1882 
L 2413 1882 
Q 2586 1882 2643 1971 
Q 2701 2061 2701 2253 
Q 2701 2662 2483 2928 
Q 2266 3194 1875 3194 
Q 1594 3194 1363 3018 
Q 1133 2842 998 2512 
Q 864 2182 864 1722 
Q 864 1203 1021 870 
Q 1178 538 1453 381 
Q 1728 224 2080 224 
Q 2419 224 2672 342 
Q 2925 461 3123 691 
L 3226 602 
Q 3014 282 2694 93 
Q 2374 -96 1939 -96 
z
" transform="scale(0.015625)"/>
       <path id="NotoSerifSC-Regular-74" d="M 992 3066 
L 992 3302 
L 2176 3302 
L 2176 3066 
L 992 3066 
z
M 1510 -96 
Q 1107 -96 915 115 
Q 723 326 723 755 
Q 723 909 726 1030 
Q 730 1152 730 1325 
L 730 3066 
L 90 3066 
L 90 3258 
L 864 3322 
L 736 3226 
L 928 4301 
L 1280 4301 
L 1254 3206 
L 1254 3130 
L 1254 755 
Q 1254 454 1366 320 
Q 1478 186 1690 186 
Q 1830 186 1939 227 
Q 2048 269 2176 346 
L 2272 237 
Q 2138 77 1952 -9 
Q 1766 -96 1510 -96 
z
" transform="scale(0.015625)"/>
      </defs>
      <use xlink:href="#NotoSerifSC-Regular-54"/>
      <use xlink:href="#NotoSerifSC-Regular-65" transform="translate(65.899994 0)"/>
      <use xlink:href="#NotoSerifSC-Regular-73" transform="translate(120.599991 0)"/>
      <use xlink:href="#NotoSerifSC-Regular-74" transform="translate(167.899979 0)"/>
      <use xlink:href="#NotoSerifSC-Regular-20" transform="translate(204.599976 0)"/>
      <use xlink:href="#NotoSerifSC-Regular-41" transform="translate(230.199966 0)"/>
      <use xlink:href="#NotoSerifSC-Regular-63" transform="translate(301.999954 0)"/>
      <use xlink:href="#NotoSerifSC-Regular-63" transform="translate(355.799942 0)"/>
      <use xlink:href="#NotoSerifSC-Regular-75" transform="translate(409.59993 0)"/>
      <use xlink:href="#NotoSerifSC-Regular-72" transform="translate(474.899918 0)"/>
      <use xlink:href="#NotoSerifSC-Regular-61" transform="translate(521.099915 0)"/>
      <use xlink:href="#NotoSerifSC-Regular-63" transform="translate(576.799911 0)"/>
      <use xlink:href="#NotoSerifSC-Regular-79" transform="translate(630.599899 0)"/>
     </g>
    </g>
    <g id="line2d_19">
     <path d="M 310.149063 270.1675 
L 320.149063 270.1675 
L 330.149063 270.1675 
" style="fill: none; stroke: #1f77b4; stroke-width: 1.5; stroke-linecap: square"/>
    </g>
    <g id="text_19">
     <!-- Train Loss -->
     <g transform="translate(338.149063 273.6675) scale(0.1 -0.1)">
      <defs>
       <path id="NotoSerifSC-Regular-4c" d="M 339 0 
L 339 192 
L 1222 269 
L 1293 269 
L 1293 0 
L 339 0 
z
M 992 0 
Q 1005 538 1005 1066 
Q 1005 1594 1005 2106 
L 1005 2502 
Q 1005 3046 1005 3587 
Q 1005 4128 992 4659 
L 1587 4659 
Q 1581 4128 1577 3577 
Q 1574 3027 1574 2419 
L 1574 2048 
Q 1574 1587 1577 1062 
Q 1581 538 1587 0 
L 992 0 
z
M 1293 0 
L 1293 218 
L 3533 218 
L 3264 64 
L 3488 1248 
L 3770 1248 
L 3725 0 
L 1293 0 
z
M 339 4467 
L 339 4659 
L 2266 4659 
L 2266 4467 
L 1370 4397 
L 1222 4397 
L 339 4467 
z
" transform="scale(0.015625)"/>
      </defs>
      <use xlink:href="#NotoSerifSC-Regular-54"/>
      <use xlink:href="#NotoSerifSC-Regular-72" transform="translate(65.899994 0)"/>
      <use xlink:href="#NotoSerifSC-Regular-61" transform="translate(112.099991 0)"/>
      <use xlink:href="#NotoSerifSC-Regular-69" transform="translate(167.799988 0)"/>
      <use xlink:href="#NotoSerifSC-Regular-6e" transform="translate(200.999985 0)"/>
      <use xlink:href="#NotoSerifSC-Regular-20" transform="translate(267.099976 0)"/>
      <use xlink:href="#NotoSerifSC-Regular-4c" transform="translate(292.699966 0)"/>
      <use xlink:href="#NotoSerifSC-Regular-6f" transform="translate(355.199951 0)"/>
      <use xlink:href="#NotoSerifSC-Regular-73" transform="translate(414.799942 0)"/>
      <use xlink:href="#NotoSerifSC-Regular-73" transform="translate(462.09993 0)"/>
     </g>
    </g>
    <g id="line2d_20">
     <path d="M 310.149063 285.8175 
L 320.149063 285.8175 
L 330.149063 285.8175 
" style="fill: none; stroke-dasharray: 5.55,2.4; stroke-dashoffset: 0; stroke: #1f77b4; stroke-width: 1.5"/>
    </g>
    <g id="text_20">
     <!-- Test Loss -->
     <g transform="translate(338.149063 289.3175) scale(0.1 -0.1)">
      <use xlink:href="#NotoSerifSC-Regular-54"/>
      <use xlink:href="#NotoSerifSC-Regular-65" transform="translate(65.899994 0)"/>
      <use xlink:href="#NotoSerifSC-Regular-73" transform="translate(120.599991 0)"/>
      <use xlink:href="#NotoSerifSC-Regular-74" transform="translate(167.899979 0)"/>
      <use xlink:href="#NotoSerifSC-Regular-20" transform="translate(204.599976 0)"/>
      <use xlink:href="#NotoSerifSC-Regular-4c" transform="translate(230.199966 0)"/>
      <use xlink:href="#NotoSerifSC-Regular-6f" transform="translate(292.699951 0)"/>
      <use xlink:href="#NotoSerifSC-Regular-73" transform="translate(352.299942 0)"/>
      <use xlink:href="#NotoSerifSC-Regular-73" transform="translate(399.59993 0)"/>
     </g>
    </g>
   </g>
  </g>
  <g id="axes_2">
   <g id="matplotlib.axis_3">
    <g id="ytick_6">
     <g id="line2d_21">
      <defs>
       <path id="m2a61a7b76d" d="M 0 0 
L 3.5 0 
" style="stroke: #000000; stroke-width: 0.8"/>
      </defs>
      <g>
       <use xlink:href="#m2a61a7b76d" x="421.97875" y="290.033743" style="stroke: #000000; stroke-width: 0.8"/>
      </g>
     </g>
     <g id="text_21">
      <!-- 0 -->
      <g style="fill: #1f77b4" transform="translate(428.97875 294.058743) scale(0.1 -0.1)">
       <use xlink:href="#NotoSerifSC-Regular-30"/>
      </g>
     </g>
    </g>
    <g id="ytick_7">
     <g id="line2d_22">
      <g>
       <use xlink:href="#m2a61a7b76d" x="421.97875" y="241.212024" style="stroke: #000000; stroke-width: 0.8"/>
      </g>
     </g>
     <g id="text_22">
      <!-- 1 -->
      <g style="fill: #1f77b4" transform="translate(428.97875 245.237024) scale(0.1 -0.1)">
       <use xlink:href="#NotoSerifSC-Regular-31"/>
      </g>
     </g>
    </g>
    <g id="ytick_8">
     <g id="line2d_23">
      <g>
       <use xlink:href="#m2a61a7b76d" x="421.97875" y="192.390306" style="stroke: #000000; stroke-width: 0.8"/>
      </g>
     </g>
     <g id="text_23">
      <!-- 2 -->
      <g style="fill: #1f77b4" transform="translate(428.97875 196.415306) scale(0.1 -0.1)">
       <use xlink:href="#NotoSerifSC-Regular-32"/>
      </g>
     </g>
    </g>
    <g id="ytick_9">
     <g id="line2d_24">
      <g>
       <use xlink:href="#m2a61a7b76d" x="421.97875" y="143.568588" style="stroke: #000000; stroke-width: 0.8"/>
      </g>
     </g>
     <g id="text_24">
      <!-- 3 -->
      <g style="fill: #1f77b4" transform="translate(428.97875 147.593588) scale(0.1 -0.1)">
       <defs>
        <path id="NotoSerifSC-Regular-33" d="M 1638 -96 
Q 1094 -96 745 134 
Q 397 365 301 813 
Q 333 909 403 960 
Q 474 1011 563 1011 
Q 678 1011 748 937 
Q 819 864 864 685 
L 1050 83 
L 794 294 
Q 960 205 1123 153 
Q 1286 102 1491 102 
Q 2029 102 2320 406 
Q 2611 710 2611 1222 
Q 2611 1754 2320 2042 
Q 2029 2330 1446 2330 
L 1158 2330 
L 1158 2554 
L 1414 2554 
Q 1882 2554 2179 2826 
Q 2477 3098 2477 3610 
Q 2477 4058 2253 4307 
Q 2029 4557 1606 4557 
Q 1427 4557 1257 4518 
Q 1088 4480 896 4378 
L 1171 4563 
L 998 3994 
Q 954 3827 880 3766 
Q 806 3706 685 3706 
Q 602 3706 538 3744 
Q 474 3782 442 3866 
Q 499 4186 688 4381 
Q 877 4576 1149 4665 
Q 1421 4755 1728 4755 
Q 2342 4755 2681 4444 
Q 3021 4134 3021 3629 
Q 3021 3328 2873 3072 
Q 2726 2816 2435 2640 
Q 2144 2464 1702 2413 
L 1702 2477 
Q 2208 2458 2525 2294 
Q 2842 2131 2998 1852 
Q 3155 1574 3155 1203 
Q 3155 813 2963 521 
Q 2771 230 2428 67 
Q 2086 -96 1638 -96 
z
" transform="scale(0.015625)"/>
       </defs>
       <use xlink:href="#NotoSerifSC-Regular-33"/>
      </g>
     </g>
    </g>
    <g id="ytick_10">
     <g id="line2d_25">
      <g>
       <use xlink:href="#m2a61a7b76d" x="421.97875" y="94.746869" style="stroke: #000000; stroke-width: 0.8"/>
      </g>
     </g>
     <g id="text_25">
      <!-- 4 -->
      <g style="fill: #1f77b4" transform="translate(428.97875 98.771869) scale(0.1 -0.1)">
       <use xlink:href="#NotoSerifSC-Regular-34"/>
      </g>
     </g>
    </g>
    <g id="ytick_11">
     <g id="line2d_26">
      <g>
       <use xlink:href="#m2a61a7b76d" x="421.97875" y="45.925151" style="stroke: #000000; stroke-width: 0.8"/>
      </g>
     </g>
     <g id="text_26">
      <!-- 5 -->
      <g style="fill: #1f77b4" transform="translate(428.97875 49.950151) scale(0.1 -0.1)">
       <use xlink:href="#NotoSerifSC-Regular-35"/>
      </g>
     </g>
    </g>
    <g id="text_27">
     <!-- Loss -->
     <g style="fill: #1f77b4" transform="translate(446.608438 174.73875) rotate(-90) scale(0.1 -0.1)">
      <use xlink:href="#NotoSerifSC-Regular-4c"/>
      <use xlink:href="#NotoSerifSC-Regular-6f" transform="translate(62.499985 0)"/>
      <use xlink:href="#NotoSerifSC-Regular-73" transform="translate(122.099976 0)"/>
      <use xlink:href="#NotoSerifSC-Regular-73" transform="translate(169.399963 0)"/>
     </g>
    </g>
   </g>
   <g id="line2d_27">
    <path d="M 64.570682 164.849997 
L 66.281177 41.056905 
L 67.991673 141.107704 
L 69.702169 175.963117 
L 71.412664 177.951742 
L 73.12316 177.622946 
L 74.833656 177.569914 
L 76.544151 177.682916 
L 78.254647 177.998523 
L 79.965143 178.665355 
L 81.675638 179.939622 
L 83.386134 182.073747 
L 85.09663 185.501763 
L 86.807125 191.11462 
L 88.517621 199.474617 
L 90.228117 209.527897 
L 91.938612 220.28425 
L 93.649108 234.41329 
L 95.359604 242.644571 
L 97.070099 249.247379 
L 98.780595 255.09656 
L 100.491091 255.902546 
L 102.201586 259.952589 
L 103.912082 261.82606 
L 105.622578 265.180953 
L 107.333073 266.946483 
L 109.043569 269.405291 
L 110.754065 270.244133 
L 114.175056 272.736665 
L 115.885552 273.387765 
L 121.017039 275.864538 
L 126.148526 277.498076 
L 127.859021 277.728033 
L 131.280013 278.76791 
L 132.990508 278.931336 
L 134.701004 279.250146 
L 136.4115 279.821331 
L 141.542987 280.726977 
L 144.963978 281.269881 
L 153.516456 282.337871 
L 158.647943 282.893036 
L 167.200421 283.617415 
L 179.173891 284.372082 
L 189.436865 284.889961 
L 208.252317 285.627139 
L 259.567187 286.913379 
L 300.619083 287.498406 
L 307.461066 287.473185 
L 310.882057 287.497317 
L 316.013544 287.65558 
L 321.145031 287.640209 
L 324.566022 287.730754 
L 327.987013 287.713306 
L 339.960483 287.941001 
L 351.933953 287.793381 
L 353.644448 287.544829 
L 358.775935 287.866002 
L 367.328414 288.085343 
L 374.170396 288.173166 
L 404.959318 288.461761 
L 404.959318 288.461761 
" clip-path="url(#pd57c6c3110)" style="fill: none; stroke: #1f77b4; stroke-width: 1.5; stroke-linecap: square"/>
   </g>
   <g id="line2d_28">
    <path d="M 64.570682 164.510202 
L 66.281177 39.346989 
L 67.991673 139.9287 
L 69.702169 175.765609 
L 71.412664 177.942977 
L 73.12316 177.606895 
L 74.833656 177.547845 
L 76.544151 177.666713 
L 78.254647 177.998197 
L 79.965143 178.682908 
L 81.675638 179.958478 
L 83.386134 182.079671 
L 85.09663 185.490251 
L 86.807125 191.162053 
L 88.517621 199.690021 
L 90.228117 210.032124 
L 91.938612 221.12985 
L 93.649108 235.564323 
L 95.359604 243.830377 
L 97.070099 250.303325 
L 98.780595 256.003613 
L 100.491091 257.407231 
L 102.201586 261.518318 
L 103.912082 263.045848 
L 105.622578 265.85971 
L 107.333073 267.715285 
L 109.043569 270.354011 
L 110.754065 271.298211 
L 114.175056 273.857449 
L 115.885552 274.475128 
L 119.306543 276.213705 
L 121.017039 277.040617 
L 124.43803 277.886107 
L 126.148526 278.254719 
L 127.859021 278.43763 
L 129.569517 278.975918 
L 131.280013 279.636546 
L 134.701004 280.174228 
L 136.4115 280.617464 
L 139.832491 280.970975 
L 143.253482 281.670246 
L 150.095465 282.516983 
L 155.226952 282.907737 
L 158.647943 283.258356 
L 163.77943 283.629961 
L 168.910917 283.843003 
L 179.173891 284.337644 
L 196.278848 284.945188 
L 208.252317 285.261764 
L 213.383804 285.344079 
L 221.936283 285.549017 
L 247.593717 285.932582 
L 305.75057 286.380403 
L 307.461066 286.219871 
L 309.171561 286.346606 
L 310.882057 286.228026 
L 312.592553 286.39809 
L 322.855526 286.382102 
L 348.512961 286.406148 
L 351.933953 286.252032 
L 353.644448 285.997707 
L 358.775935 286.317298 
L 360.486431 286.248925 
L 362.196927 286.429773 
L 365.617918 286.326772 
L 367.328414 286.462738 
L 379.301883 286.488894 
L 382.722875 286.478814 
L 404.959318 286.468116 
L 404.959318 286.468116 
" clip-path="url(#pd57c6c3110)" style="fill: none; stroke-dasharray: 5.55,2.4; stroke-dashoffset: 0; stroke: #1f77b4; stroke-width: 1.5"/>
   </g>
   <g id="patch_8">
    <path d="M 47.55125 300.9175 
L 47.55125 26.89125 
" style="fill: none; stroke: #000000; stroke-width: 0.8; stroke-linejoin: miter; stroke-linecap: square"/>
   </g>
   <g id="patch_9">
    <path d="M 421.97875 300.9175 
L 421.97875 26.89125 
" style="fill: none; stroke: #000000; stroke-width: 0.8; stroke-linejoin: miter; stroke-linecap: square"/>
   </g>
   <g id="patch_10">
    <path d="M 47.55125 300.9175 
L 421.97875 300.9175 
" style="fill: none; stroke: #000000; stroke-width: 0.8; stroke-linejoin: miter; stroke-linecap: square"/>
   </g>
   <g id="patch_11">
    <path d="M 47.55125 26.89125 
L 421.97875 26.89125 
" style="fill: none; stroke: #000000; stroke-width: 0.8; stroke-linejoin: miter; stroke-linecap: square"/>
   </g>
   <g id="text_28">
    <!-- Training and Testing Accuracy and Loss over Epochs -->
    <g transform="translate(80.2275 20.89125) scale(0.12 -0.12)">
     <defs>
      <path id="NotoSerifSC-Regular-67" d="M 1594 -1664 
Q 1114 -1664 822 -1552 
Q 531 -1440 396 -1251 
Q 262 -1062 262 -819 
Q 262 -518 476 -307 
Q 691 -96 1114 70 
L 1146 13 
Q 896 -173 781 -333 
Q 666 -493 666 -730 
Q 666 -1075 912 -1254 
Q 1158 -1434 1606 -1434 
Q 2278 -1434 2617 -1200 
Q 2957 -966 2957 -621 
Q 2957 -403 2803 -246 
Q 2650 -90 2246 -90 
L 1459 -90 
Q 1312 -90 1197 -83 
Q 1082 -77 979 -45 
L 979 -26 
Q 486 96 486 538 
Q 486 742 611 928 
Q 736 1114 1024 1338 
L 1024 1395 
L 1171 1318 
Q 1005 1146 925 1024 
Q 845 902 845 742 
Q 845 576 960 473 
Q 1075 371 1338 371 
L 2272 371 
Q 2662 371 2915 272 
Q 3168 173 3289 -19 
Q 3411 -211 3411 -480 
Q 3411 -774 3203 -1046 
Q 2995 -1318 2588 -1491 
Q 2182 -1664 1594 -1664 
z
M 1670 1114 
Q 1286 1114 1004 1258 
Q 723 1402 572 1658 
Q 422 1914 422 2253 
Q 422 2771 758 3084 
Q 1094 3398 1677 3398 
Q 1971 3398 2208 3315 
Q 2445 3232 2598 3072 
L 2618 3059 
Q 2925 2765 2925 2253 
Q 2925 1914 2771 1658 
Q 2618 1402 2336 1258 
Q 2054 1114 1670 1114 
z
M 1670 1306 
Q 2016 1306 2227 1568 
Q 2438 1830 2438 2259 
Q 2438 2688 2227 2947 
Q 2016 3206 1677 3206 
Q 1331 3206 1123 2944 
Q 915 2682 915 2253 
Q 915 1824 1120 1565 
Q 1325 1306 1670 1306 
z
M 2406 2989 
L 2406 3098 
L 2445 3098 
L 3334 3373 
L 3443 3302 
L 3443 2957 
L 2406 2989 
z
" transform="scale(0.015625)"/>
      <path id="NotoSerifSC-Regular-64" d="M 1709 -96 
Q 1306 -96 989 121 
Q 672 339 489 723 
Q 307 1107 307 1613 
Q 307 2163 505 2563 
Q 704 2963 1043 3180 
Q 1382 3398 1798 3398 
Q 2080 3398 2345 3260 
Q 2611 3123 2842 2803 
L 2899 2803 
L 2822 2630 
Q 2592 2880 2384 2992 
Q 2176 3104 1939 3104 
Q 1645 3104 1401 2953 
Q 1158 2803 1014 2476 
Q 870 2150 870 1626 
Q 870 1139 1004 825 
Q 1139 512 1372 361 
Q 1606 211 1894 211 
Q 2157 211 2374 323 
Q 2592 435 2810 704 
L 2893 525 
L 2829 525 
Q 2618 211 2330 57 
Q 2042 -96 1709 -96 
z
M 2765 -64 
L 2739 570 
L 2739 589 
L 2739 2758 
L 2752 2816 
L 2752 4755 
L 2170 4787 
L 2170 4960 
L 3187 5152 
L 3277 5094 
L 3258 4122 
L 3258 218 
L 3859 179 
L 3859 0 
L 2765 -64 
z
" transform="scale(0.015625)"/>
      <path id="NotoSerifSC-Regular-76" d="M 1619 -32 
L 288 3302 
L 877 3302 
L 1958 403 
L 1850 403 
L 1888 486 
L 2874 3302 
L 3123 3302 
L 1875 -32 
L 1619 -32 
z
M -51 3117 
L -51 3302 
L 1536 3302 
L 1536 3117 
L 838 3053 
L 576 3053 
L -51 3117 
z
M 2221 3117 
L 2221 3302 
L 3482 3302 
L 3482 3117 
L 2963 3053 
L 2854 3053 
L 2221 3117 
z
" transform="scale(0.015625)"/>
     </defs>
     <use xlink:href="#NotoSerifSC-Regular-54"/>
     <use xlink:href="#NotoSerifSC-Regular-72" transform="translate(65.899994 0)"/>
     <use xlink:href="#NotoSerifSC-Regular-61" transform="translate(112.099991 0)"/>
     <use xlink:href="#NotoSerifSC-Regular-69" transform="translate(167.799988 0)"/>
     <use xlink:href="#NotoSerifSC-Regular-6e" transform="translate(200.999985 0)"/>
     <use xlink:href="#NotoSerifSC-Regular-69" transform="translate(267.099976 0)"/>
     <use xlink:href="#NotoSerifSC-Regular-6e" transform="translate(300.299973 0)"/>
     <use xlink:href="#NotoSerifSC-Regular-67" transform="translate(366.399963 0)"/>
     <use xlink:href="#NotoSerifSC-Regular-20" transform="translate(422.999954 0)"/>
     <use xlink:href="#NotoSerifSC-Regular-61" transform="translate(448.599945 0)"/>
     <use xlink:href="#NotoSerifSC-Regular-6e" transform="translate(504.299942 0)"/>
     <use xlink:href="#NotoSerifSC-Regular-64" transform="translate(570.399933 0)"/>
     <use xlink:href="#NotoSerifSC-Regular-20" transform="translate(633.299927 0)"/>
     <use xlink:href="#NotoSerifSC-Regular-54" transform="translate(658.899918 0)"/>
     <use xlink:href="#NotoSerifSC-Regular-65" transform="translate(724.799911 0)"/>
     <use xlink:href="#NotoSerifSC-Regular-73" transform="translate(779.499908 0)"/>
     <use xlink:href="#NotoSerifSC-Regular-74" transform="translate(826.799896 0)"/>
     <use xlink:href="#NotoSerifSC-Regular-69" transform="translate(863.499893 0)"/>
     <use xlink:href="#NotoSerifSC-Regular-6e" transform="translate(896.69989 0)"/>
     <use xlink:href="#NotoSerifSC-Regular-67" transform="translate(962.799881 0)"/>
     <use xlink:href="#NotoSerifSC-Regular-20" transform="translate(1019.399872 0)"/>
     <use xlink:href="#NotoSerifSC-Regular-41" transform="translate(1044.999863 0)"/>
     <use xlink:href="#NotoSerifSC-Regular-63" transform="translate(1116.79985 0)"/>
     <use xlink:href="#NotoSerifSC-Regular-63" transform="translate(1170.599838 0)"/>
     <use xlink:href="#NotoSerifSC-Regular-75" transform="translate(1224.399826 0)"/>
     <use xlink:href="#NotoSerifSC-Regular-72" transform="translate(1289.699814 0)"/>
     <use xlink:href="#NotoSerifSC-Regular-61" transform="translate(1335.899811 0)"/>
     <use xlink:href="#NotoSerifSC-Regular-63" transform="translate(1391.599808 0)"/>
     <use xlink:href="#NotoSerifSC-Regular-79" transform="translate(1445.399796 0)"/>
     <use xlink:href="#NotoSerifSC-Regular-20" transform="translate(1500.599792 0)"/>
     <use xlink:href="#NotoSerifSC-Regular-61" transform="translate(1526.199783 0)"/>
     <use xlink:href="#NotoSerifSC-Regular-6e" transform="translate(1581.89978 0)"/>
     <use xlink:href="#NotoSerifSC-Regular-64" transform="translate(1647.999771 0)"/>
     <use xlink:href="#NotoSerifSC-Regular-20" transform="translate(1710.899765 0)"/>
     <use xlink:href="#NotoSerifSC-Regular-4c" transform="translate(1736.499756 0)"/>
     <use xlink:href="#NotoSerifSC-Regular-6f" transform="translate(1798.999741 0)"/>
     <use xlink:href="#NotoSerifSC-Regular-73" transform="translate(1858.599731 0)"/>
     <use xlink:href="#NotoSerifSC-Regular-73" transform="translate(1905.899719 0)"/>
     <use xlink:href="#NotoSerifSC-Regular-20" transform="translate(1953.199707 0)"/>
     <use xlink:href="#NotoSerifSC-Regular-6f" transform="translate(1978.799698 0)"/>
     <use xlink:href="#NotoSerifSC-Regular-76" transform="translate(2038.399689 0)"/>
     <use xlink:href="#NotoSerifSC-Regular-65" transform="translate(2093.199677 0)"/>
     <use xlink:href="#NotoSerifSC-Regular-72" transform="translate(2147.899673 0)"/>
     <use xlink:href="#NotoSerifSC-Regular-20" transform="translate(2194.09967 0)"/>
     <use xlink:href="#NotoSerifSC-Regular-45" transform="translate(2219.699661 0)"/>
     <use xlink:href="#NotoSerifSC-Regular-70" transform="translate(2284.899658 0)"/>
     <use xlink:href="#NotoSerifSC-Regular-6f" transform="translate(2348.699646 0)"/>
     <use xlink:href="#NotoSerifSC-Regular-63" transform="translate(2408.299637 0)"/>
     <use xlink:href="#NotoSerifSC-Regular-68" transform="translate(2462.099625 0)"/>
     <use xlink:href="#NotoSerifSC-Regular-73" transform="translate(2528.399612 0)"/>
    </g>
   </g>
  </g>
 </g>
 <defs>
  <clipPath id="pd57c6c3110">
   <rect x="47.55125" y="26.89125" width="374.4275" height="274.02625"/>
  </clipPath>
 </defs>
</svg>
